<svg width="78" height="58" viewBox="0 0 78 58" fill="none" xmlns="http://www.w3.org/2000/svg">
<path d="M75.866 0H65.7114C64.5574 0 63.6343 0.957464 63.6343 2.14472C63.6343 3.37027 64.519 4.32773 65.7114 4.32773H68.1731H75.866C77.0199 4.32773 77.943 3.37027 77.943 2.18301C77.943 0.957461 77.0199 0 75.866 0Z" fill="white"/>
<path d="M8.70685 14.515C7.51445 14.515 6.51438 13.5575 6.51438 12.332C6.51438 11.1447 7.51445 10.1873 8.70685 10.1873H27.8237C28.8622 10.1873 29.4776 9.65109 29.67 8.92342C29.7854 8.46384 30.5546 7.23828 32.1317 7.23828H62.1339L62.3263 7.27658L62.4032 7.42977V11.566L62.3263 11.7192C62.2109 11.7575 62.0955 11.7575 62.0955 11.7575H53.941C52.9409 11.7575 52.0947 12.4852 52.0947 13.4809V41.0558C52.0947 41.0558 52.0947 42.4729 50.9408 43.2388C50.9408 43.2388 42.3632 48.7538 41.8632 49.0985C41.4401 49.4049 40.44 49.7879 39.5938 49.1751C38.9399 48.7155 38.9014 47.6432 38.9014 47.6432V13.9022C38.9014 12.2171 37.9013 11.7192 36.709 11.7192H32.7087C31.4778 11.7192 31.0162 12.1788 30.8239 12.9065C30.7085 13.366 30.0931 14.4767 28.4391 14.4767H27.2467C26.4774 14.4767 25.8235 15.0895 25.8235 15.8937V43.2006C25.8235 43.2006 25.862 45.4602 24.6311 47.2602C23.631 48.7538 21.3232 50.056 21.3232 50.056L11.8225 56.4135C11.8225 56.4135 7.93756 59.0944 3.55262 57.4859C0.283142 56.2603 -0.255361 54.0773 0.0908187 52.1241C0.436998 50.1709 2.78333 49.0219 4.24498 49.0985C6.01434 49.1751 7.43752 49.7879 8.28374 51.8943C8.9761 53.6177 9.5146 54.1922 10.4377 54.2688C11.3224 54.3071 12.1686 53.1199 12.1686 50.9368V15.8937C12.1686 15.1278 11.5148 14.4767 10.7455 14.4767H8.70685V14.515Z" fill="white"/>
<path d="M77.4042 7.23751V33.3571C77.4042 33.3571 77.4042 34.7741 76.2503 35.5401C76.2503 35.5401 67.6727 41.0551 67.1727 41.3998C66.7496 41.6679 65.7495 42.0891 64.9033 41.4381C64.2879 40.9785 64.2109 39.9444 64.2109 39.9444V7.19922H77.4042V7.23751Z" fill="white"/>
</svg>
