<svg width="189" height="211" viewBox="0 0 189 211" fill="none" xmlns="http://www.w3.org/2000/svg">
<path d="M155.311 143.579C172.26 143.579 186 138.49 186 132.212C186 125.935 172.26 120.846 155.311 120.846C138.361 120.846 124.621 125.935 124.621 132.212C124.621 138.49 138.361 143.579 155.311 143.579Z" stroke="white" stroke-width="5" stroke-miterlimit="10" stroke-linecap="round" stroke-linejoin="round"/>
<path d="M164.403 158.354C176.918 156.82 186 152.567 186 147.478V132.211" stroke="white" stroke-width="5" stroke-miterlimit="10" stroke-linecap="round" stroke-linejoin="round"/>
<path d="M124.621 132.211V142.441" stroke="white" stroke-width="5" stroke-miterlimit="10" stroke-linecap="round" stroke-linejoin="round"/>
<path d="M164.403 174.268C176.918 172.734 186 168.482 186 163.392V148.125" stroke="white" stroke-width="5" stroke-miterlimit="10" stroke-linecap="round" stroke-linejoin="round"/>
<path d="M164.403 189.043C176.918 187.509 186 183.257 186 178.168V162.9" stroke="white" stroke-width="5" stroke-miterlimit="10" stroke-linecap="round" stroke-linejoin="round"/>
<path d="M120.074 178.815C137.023 178.815 150.763 173.726 150.763 167.448C150.763 161.171 137.023 156.082 120.074 156.082C103.125 156.082 89.3848 161.171 89.3848 167.448C89.3848 173.726 103.125 178.815 120.074 178.815Z" stroke="white" stroke-width="5" stroke-miterlimit="10" stroke-linecap="round" stroke-linejoin="round"/>
<path d="M89.3848 167.447V182.396C89.3848 188.607 103.118 193.59 120.074 193.59C137.03 193.59 150.763 188.539 150.763 182.396V167.447" stroke="white" stroke-width="5" stroke-miterlimit="10" stroke-linecap="round" stroke-linejoin="round"/>
<path d="M89.3848 182.225V197.173C89.3848 203.385 103.118 208.367 120.074 208.367C137.03 208.367 150.763 203.316 150.763 197.173V182.225" stroke="white" stroke-width="5" stroke-miterlimit="10" stroke-linecap="round" stroke-linejoin="round"/>
<path d="M122.347 31.7079V21.2998C122.347 11.0306 113.957 2.63477 103.54 2.63477H21.8075C11.4599 2.63477 3 10.9612 3 21.2998V189.702C3 199.971 11.39 208.367 21.8075 208.367H76.0626" stroke="white" stroke-width="5" stroke-miterlimit="10" stroke-linecap="round" stroke-linejoin="round"/>
<path d="M67.7884 190.18H58.6953" stroke="white" stroke-width="5" stroke-miterlimit="10" stroke-linecap="round" stroke-linejoin="round"/>
<path d="M73.4722 20.8223H51.876" stroke="white" stroke-width="5" stroke-miterlimit="10" stroke-linecap="round" stroke-linejoin="round"/>
<path d="M89.3848 145.853V46.9648H162.13V106.242" stroke="white" stroke-width="5" stroke-miterlimit="10" stroke-linecap="round" stroke-linejoin="round"/>
<path d="M145.08 109.549C140.964 103.356 133.966 99.25 126.008 99.25C113.315 99.25 103.024 109.689 103.024 122.563C103.024 129.591 106.112 135.924 110.983 140.169" stroke="white" stroke-width="5" stroke-miterlimit="10" stroke-linecap="round" stroke-linejoin="round"/>
<path d="M149.627 93.566V71.8988C142.88 71.8988 137.454 66.3577 137.454 59.4668H115.197C115.197 66.3577 109.771 71.8988 103.024 71.8988V93.566" stroke="white" stroke-width="5" stroke-miterlimit="10" stroke-linecap="round" stroke-linejoin="round"/>
</svg>
